<?xml version="1.0" standalone="no"?>
<!DOCTYPE svg PUBLIC "-//W3C//DTD SVG 20010904//EN"
 "http://www.w3.org/TR/2001/REC-SVG-20010904/DTD/svg10.dtd">
<svg version="1.0" xmlns="http://www.w3.org/2000/svg"
 width="964.000000pt" height="200.000000pt" viewBox="0 0 964.000000 200.000000"
 preserveAspectRatio="xMidYMid meet">
<metadata>
Created by potrace 1.15, written by Peter Selinger 2001-2017
</metadata>
<g transform="translate(0.000000,200.000000) scale(0.100000,-0.100000)"
fill="#000000" stroke="none">
<path d="M8663 1978 c-7 -7 -14 -26 -17 -42 -3 -15 -12 -49 -21 -75 -14 -43
-18 -47 -45 -45 -17 1 -40 0 -51 -3 -28 -8 -18 -45 21 -85 24 -23 28 -35 23
-58 -7 -35 4 -83 17 -75 5 3 7 18 4 33 -7 32 14 56 35 42 15 -8 11 -21 -15
-57 -15 -21 -15 -23 10 -34 19 -9 25 -17 20 -31 -6 -20 3 -23 26 -8 11 7 12
14 5 27 -12 21 -8 66 6 58 5 -4 9 -41 9 -83 0 -66 -2 -73 -14 -57 -12 17 -13
17 -20 -8 -7 -31 -26 -36 -26 -7 0 25 -32 44 -48 28 -7 -7 -12 -18 -12 -25 0
-17 -47 -17 -52 -1 -3 8 -9 4 -17 -10 -10 -18 -10 -27 0 -38 9 -11 8 -14 -3
-14 -8 0 -19 5 -25 11 -8 8 -16 6 -30 -7 -39 -40 -46 -53 -34 -68 9 -11 8 -18
-6 -32 -17 -16 -18 -16 -21 -1 -5 25 -40 21 -45 -5 -4 -22 -4 -22 -6 1 0 14
-8 33 -18 43 -14 16 -14 18 -1 18 12 0 17 13 20 46 2 25 0 51 -4 58 -5 8 -2
19 7 26 16 13 9 40 -9 40 -7 0 -18 12 -24 26 -13 27 -29 24 -42 -10 -9 -21 -9
-21 -9 0 -1 25 -30 54 -54 54 -21 0 -57 -35 -57 -55 0 -8 5 -24 11 -34 7 -10
9 -30 5 -44 -5 -23 -12 -27 -41 -27 -31 0 -35 -3 -35 -26 0 -14 4 -23 10 -19
6 3 10 2 10 -4 0 -5 -6 -12 -12 -14 -9 -4 -9 -6 1 -6 11 -1 10 -5 -5 -16 -23
-17 -44 -19 -44 -4 0 5 4 8 9 4 14 -8 25 15 13 27 -8 8 -16 6 -27 -6 -9 -9
-23 -16 -32 -16 -10 0 -4 10 17 30 17 16 30 33 28 37 -2 5 -12 27 -22 50 -13
32 -27 45 -57 57 -22 9 -47 16 -57 17 -10 0 -4 6 16 15 30 13 44 34 22 34 -24
0 -120 -50 -120 -63 0 -8 -10 -17 -23 -21 -19 -4 -23 -12 -23 -44 1 -23 8 -46
19 -56 24 -25 21 -43 -9 -50 -14 -4 -24 -12 -22 -18 6 -17 49 -17 81 -1 16 8
31 12 34 9 3 -3 -2 -8 -11 -12 -19 -7 -22 -34 -3 -34 7 0 18 5 24 11 7 7 12 6
16 -5 4 -10 1 -16 -9 -16 -18 0 -29 -24 -18 -42 5 -7 8 -22 9 -33 0 -26 35
-32 52 -9 7 10 16 15 19 11 4 -4 1 -13 -6 -22 -10 -12 -10 -21 0 -45 7 -16 9
-41 6 -56 -5 -18 -2 -32 9 -44 15 -16 14 -18 -4 -23 -11 -3 -22 0 -25 7 -2 6
-5 4 -5 -4 -1 -9 11 -23 27 -32 20 -13 22 -18 10 -18 -10 0 -18 -5 -18 -11 0
-7 -10 -9 -26 -5 -18 5 -33 1 -47 -11 -18 -16 -20 -16 -14 -1 7 19 -17 28 -80
28 -24 0 -43 4 -43 9 0 5 -11 11 -25 13 -19 4 -25 1 -25 -13 0 -11 -7 -19 -15
-19 -18 0 -20 -26 -3 -36 6 -4 17 1 23 10 11 14 14 14 18 2 3 -8 -1 -17 -9
-20 -24 -9 -17 -46 9 -47 l22 0 -22 -9 c-13 -5 -23 -14 -23 -19 0 -19 39 -22
65 -5 25 17 35 8 13 -14 -9 -9 -7 -13 6 -18 15 -6 14 -10 -8 -49 -19 -31 -26
-59 -28 -109 -1 -46 -6 -66 -15 -66 -7 0 -13 -7 -13 -15 0 -8 -4 -15 -9 -15
-5 0 -13 29 -16 65 -11 104 -37 144 -119 185 -69 34 -72 35 -195 35 -146 0
-202 -16 -250 -70 -43 -49 -54 -118 -49 -309 5 -224 20 -250 168 -287 84 -21
272 -18 340 6 49 18 58 25 80 70 14 28 25 60 26 73 2 70 5 82 19 82 19 0 19 9
0 34 -8 11 -15 35 -15 53 l0 33 53 -1 c38 -1 45 -3 27 -8 -23 -6 -25 -12 -28
-70 -3 -63 11 -102 24 -68 3 9 14 17 24 17 10 0 28 12 39 26 l21 27 0 -44 c0
-25 8 -60 18 -78 19 -35 72 -71 104 -71 22 0 22 -9 3 -34 -15 -19 -15 -19 -15
2 0 13 -7 25 -15 29 -20 7 -26 1 -28 -26 -1 -23 -12 -28 -21 -8 -3 8 -9 6 -20
-7 -21 -26 -20 -33 4 -46 13 -7 26 -7 38 -1 11 6 24 6 33 0 10 -6 8 -9 -12 -9
-39 0 -52 -22 -45 -75 7 -44 8 -45 43 -45 44 0 63 22 56 67 -4 20 -1 33 5 33
6 0 12 10 14 22 2 12 10 24 18 26 13 5 13 3 2 -11 -15 -17 -8 -37 11 -37 20 1
46 46 49 84 1 20 6 36 11 36 5 0 7 -7 4 -15 -9 -23 11 -28 35 -9 14 10 16 14
6 11 -10 -3 -19 1 -22 10 -9 22 2 29 23 16 14 -9 22 -9 31 0 8 8 8 4 -1 -12
-11 -19 -11 -25 -1 -28 17 -6 15 -49 -4 -100 -13 -34 -15 -49 -6 -68 l12 -25
464 0 c362 0 465 3 469 13 4 10 6 10 6 0 1 -9 18 -13 50 -13 52 0 64 11 54 49
-7 27 43 73 73 66 13 -3 27 2 35 11 10 13 9 16 -9 21 -17 4 -22 13 -22 39 0
19 5 34 10 34 6 0 10 -5 10 -12 0 -7 15 2 33 19 29 27 36 29 71 21 45 -10 50
-7 41 22 -6 19 -13 21 -61 18 -30 -1 -54 0 -54 5 0 4 9 7 19 7 11 0 22 6 24
13 4 9 6 9 6 0 1 -17 41 -17 41 -1 0 9 3 9 12 0 7 -7 22 -12 35 -12 13 0 23
-4 23 -10 0 -19 20 -10 50 22 34 39 36 46 13 64 -24 18 -33 17 -33 -1 0 -8 4
-15 9 -15 5 0 11 -6 14 -12 3 -10 -9 -12 -47 -9 -41 3 -47 5 -28 12 30 11 29
39 -2 39 -14 0 -28 -5 -31 -10 -13 -21 -32 -10 -27 15 3 20 0 25 -17 25 -17 0
-21 6 -21 35 0 19 5 35 10 35 6 0 10 -4 10 -8 0 -11 61 -32 93 -32 14 0 38 -5
52 -10 25 -9 26 -8 23 17 -3 27 -5 28 -60 28 -32 0 -58 3 -58 7 0 5 11 8 25 8
14 0 25 6 25 13 0 8 4 7 10 -3 8 -12 13 -13 30 -2 12 7 20 8 20 2 0 -5 11 -10
24 -10 13 0 27 -6 29 -12 3 -7 6 2 6 20 1 27 -3 32 -21 33 l-23 0 23 10 c13 5
22 15 20 21 -6 16 -58 23 -58 9 0 -6 -10 -11 -22 -11 -17 0 -19 3 -10 12 7 7
12 16 12 21 0 13 -43 -3 -64 -25 -10 -11 -21 -16 -25 -12 -3 4 0 9 7 11 15 6
16 29 2 38 -6 4 -17 1 -25 -5 -11 -9 -14 -8 -14 7 1 10 -3 29 -7 43 -7 22 -6
24 9 11 23 -19 44 -8 64 34 16 34 36 45 48 25 3 -5 24 -10 46 -10 33 0 39 3
39 21 0 19 -4 21 -40 16 -22 -3 -40 -1 -40 4 0 8 37 14 68 10 8 -1 12 15 12
53 0 45 -3 54 -15 50 -17 -7 -20 7 -6 21 14 15 23 98 12 114 -14 21 -33 2 -26
-26 5 -21 3 -24 -10 -19 -9 3 -18 6 -19 6 -2 0 -1 11 1 24 6 27 -22 76 -44 76
-8 0 -11 5 -7 11 4 8 9 8 17 0 12 -12 56 -15 81 -5 20 8 21 33 1 41 -14 5 -14
7 0 23 11 12 15 32 13 61 l-4 44 -12 -28 c-10 -23 -16 -27 -35 -22 -38 12 -42
11 -42 -17 1 -28 -20 -39 -27 -16 -3 7 -17 -2 -36 -22 -33 -34 -40 -56 -22
-62 7 -2 5 -11 -4 -23 -15 -20 -15 -20 -30 0 -15 19 -17 19 -30 2 -13 -16 -14
-16 -20 8 -4 14 -12 25 -19 25 -6 0 8 18 31 39 44 39 44 39 27 65 -10 14 -24
26 -32 26 -8 0 -11 5 -7 11 4 8 9 8 17 0 16 -16 83 -13 97 4 14 17 5 35 -16
35 -13 0 -13 3 2 17 13 13 19 14 22 5 6 -20 39 -13 56 13 18 27 22 85 6 85 -5
0 -10 -11 -10 -25 0 -14 -4 -25 -9 -25 -5 0 -12 11 -15 25 -8 32 -56 37 -56 6
0 -27 -13 -33 -45 -21 -21 8 -27 7 -32 -6 -3 -9 -1 -25 5 -34 9 -15 8 -17 -9
-13 -10 3 -19 10 -19 15 0 5 -12 8 -27 6 -19 -2 -29 -10 -34 -28 l-7 -25 -1
25 c-1 17 -11 32 -31 43 -16 10 -30 15 -30 10 0 -4 -5 0 -11 11 -7 11 -8 21
-2 25 5 3 12 14 16 24 10 26 27 21 27 -8 0 -51 69 -89 78 -42 3 12 -3 17 -22
17 -30 0 -30 0 -11 47 11 25 12 40 5 47 -7 7 -10 6 -10 -2 0 -6 -10 -16 -21
-23 -17 -9 -23 -8 -30 2 -5 9 -9 9 -9 3 0 -7 -11 -14 -24 -16 -20 -4 -26 0
-28 16 -4 29 -31 26 -39 -4 l-7 -25 -1 25 c-1 17 -11 32 -30 43 -37 22 -35 22
-66 -8 -29 -30 -30 -35 -11 -60 8 -12 11 -34 8 -61 -3 -34 -1 -45 12 -50 11
-4 16 -18 16 -45 0 -30 4 -39 17 -39 16 0 16 -1 0 -17 -14 -15 -20 -15 -42 -3
-31 17 -42 8 -19 -15 17 -17 17 -18 -1 -31 -10 -8 -24 -14 -29 -13 -6 0 -5 3
2 6 14 6 16 43 2 43 -5 0 -10 6 -10 14 0 8 -6 16 -12 18 -9 3 -8 10 5 22 9 10
15 22 11 27 -3 6 0 17 7 25 6 8 9 18 5 22 -4 4 -14 -2 -22 -12 -8 -11 -14 -14
-14 -8 0 7 -12 12 -26 12 -16 0 -24 -5 -21 -12 2 -7 12 -12 21 -12 10 1 16 -6
15 -20 0 -11 -3 -16 -5 -10 -2 6 -17 9 -33 6 -19 -3 -36 4 -56 20 l-27 24 27
18 c15 10 38 16 51 13 15 -3 24 0 24 8 0 13 22 26 43 24 7 0 2 -4 -10 -9 -34
-14 -28 -32 9 -28 60 6 42 69 -23 82 -26 5 -29 9 -23 28 6 21 6 21 -11 5 -9
-10 -14 -24 -11 -32 3 -8 1 -16 -4 -16 -6 -1 -14 -3 -20 -4 -5 -1 -14 -3 -20
-4 -5 0 -10 -10 -10 -20 0 -11 -5 -23 -10 -26 -14 -9 -69 36 -69 56 -1 9 -11
19 -24 23 -24 6 -31 38 -14 64 5 7 4 12 -3 12 -11 0 -8 51 5 83 9 21 22 22 41
2 9 -8 24 -15 35 -15 10 0 19 -4 19 -10 0 -5 -9 -10 -20 -10 -35 0 -22 -26 20
-40 22 -7 40 -20 40 -27 0 -11 8 -13 28 -9 51 10 122 18 126 15 2 -2 13 4 24
14 22 20 52 17 72 -8 17 -21 37 -19 50 4 7 15 6 23 -6 35 -8 9 -11 16 -5 16 6
0 11 7 11 15 0 8 -4 15 -10 15 -5 0 -10 6 -10 14 0 8 -11 14 -27 14 -35 0 -53
25 -46 67 3 18 0 55 -6 82 -6 26 -13 62 -15 79 -4 41 -13 54 -37 54 -10 0 -19
4 -19 9 0 12 -64 19 -220 27 -101 5 -128 3 -137 -8z m62 -618 c19 -32 35 -67
35 -79 0 -16 7 -21 28 -22 16 -1 20 -3 10 -6 -27 -7 -23 -43 5 -44 l22 0 -22
-11 c-29 -14 -29 -26 -2 -36 l20 -8 -21 -19 c-17 -16 -24 -16 -44 -6 -36 20
-147 119 -183 165 l-33 41 31 6 c16 4 32 9 36 12 9 10 -8 27 -27 27 -19 0 -19
1 -3 20 14 16 19 17 25 6 12 -22 46 -7 60 25 12 28 13 28 21 7 4 -12 23 -47
42 -78z m-1321 -680 c71 -27 87 -92 36 -145 l-31 -31 36 -48 c41 -53 42 -80 4
-84 -22 -3 -32 7 -68 63 -23 36 -49 65 -57 65 -15 0 -17 -6 -14 -66 2 -47 -17
-68 -53 -59 l-24 7 -1 146 c-1 105 2 148 11 154 17 11 131 10 161 -2z"/>
<path d="M7251 627 c-1 -30 3 -46 9 -42 6 3 10 1 10 -4 0 -6 -4 -11 -10 -11
-6 0 -10 -37 -10 -90 0 -83 1 -90 20 -90 18 0 20 7 20 55 0 42 -3 55 -15 55
-8 0 -15 6 -15 14 0 22 17 28 24 10 4 -11 14 -15 31 -12 20 4 31 -5 71 -64 26
-37 50 -68 53 -68 16 1 33 19 26 30 -6 9 -10 9 -17 -1 -7 -11 -8 -9 -4 4 4 13
-5 33 -26 60 -24 30 -29 42 -18 45 7 3 24 15 37 28 37 37 29 85 -18 109 -32
17 -154 21 -144 5 3 -5 3 -16 -1 -22 -6 -9 -10 -5 -15 12 -5 19 -7 13 -8 -23z"/>
<path d="M4490 1175 c0 -348 0 -355 20 -355 20 0 20 7 20 355 0 348 0 355 -20
355 -20 0 -20 -7 -20 -355z"/>
<path d="M7187 1258 c-21 -145 -37 -266 -37 -269 0 -14 50 4 54 20 2 9 12 78
22 154 10 75 21 134 25 130 3 -5 28 -73 54 -153 26 -80 51 -149 55 -153 4 -5
32 63 61 152 29 88 56 155 60 148 3 -6 14 -76 24 -154 l18 -143 44 -2 c23 -1
51 -2 61 -2 9 -1 17 6 17 14 0 10 -11 15 -35 15 l-35 0 -36 247 c-19 137 -38
250 -41 254 -3 3 -27 -61 -53 -143 -25 -81 -54 -173 -64 -203 l-18 -55 -45
145 c-26 80 -54 171 -64 203 -10 31 -20 57 -23 57 -4 0 -23 -118 -44 -262z"/>
<path d="M140 1482 c-73 -73 -42 -200 61 -252 57 -30 79 -58 79 -102 0 -44
-35 -88 -70 -88 -24 0 -70 42 -70 65 0 19 -24 20 -40 0 -17 -21 -5 -62 30 -96
23 -23 37 -29 73 -29 78 0 127 60 127 155 0 71 -34 122 -107 159 -71 36 -94
95 -53 136 26 26 42 25 79 -6 26 -21 34 -24 46 -14 22 19 18 38 -14 71 -41 41
-101 41 -141 1z"/>
<path d="M3320 1482 c-73 -73 -42 -200 61 -252 57 -30 79 -58 79 -102 0 -44
-35 -88 -70 -88 -24 0 -70 42 -70 65 0 19 -24 20 -40 0 -17 -21 -5 -62 30 -96
23 -23 37 -29 73 -29 78 0 127 60 127 155 0 71 -34 122 -107 159 -71 36 -94
95 -53 136 26 26 42 25 79 -6 26 -21 34 -24 46 -14 22 19 18 38 -14 71 -41 41
-101 41 -141 1z"/>
<path d="M4930 1482 c-73 -73 -42 -200 61 -252 57 -30 79 -58 79 -102 0 -44
-35 -88 -70 -88 -24 0 -70 42 -70 65 0 19 -24 20 -40 0 -17 -21 -5 -62 30 -96
23 -23 37 -29 73 -29 78 0 127 60 127 155 0 71 -34 122 -107 159 -71 36 -94
95 -53 136 26 26 42 25 79 -6 26 -21 34 -24 46 -14 22 19 18 38 -14 71 -41 41
-101 41 -141 1z"/>
<path d="M760 1499 c0 -3 -38 -116 -85 -253 -47 -136 -85 -249 -85 -252 0 -2
13 -4 29 -4 27 0 31 5 53 73 l25 72 69 3 70 3 24 -76 c22 -70 25 -75 52 -75
15 0 28 3 28 8 1 14 -163 487 -172 497 -4 5 -8 7 -8 4z"/>
<path d="M1230 1245 l0 -255 75 0 c48 0 87 6 105 15 61 31 79 170 31 236 -20
27 -21 31 -6 58 31 61 12 166 -34 191 -11 5 -54 10 -95 10 l-76 0 0 -255z
m155 175 c9 -7 15 -29 15 -55 0 -52 -15 -66 -75 -73 l-45 -5 0 78 0 78 45 -5
c25 -3 52 -11 60 -18z m0 -215 c19 -18 25 -35 25 -68 0 -61 -16 -79 -78 -85
l-52 -5 0 92 0 91 40 0 c30 0 47 -7 65 -25z"/>
<path d="M1900 1499 c0 -3 -38 -116 -85 -253 -47 -136 -85 -249 -85 -252 0 -2
13 -4 29 -4 27 0 31 5 53 73 l25 72 69 3 70 3 24 -76 c22 -70 25 -75 52 -75
15 0 28 3 28 8 1 14 -163 487 -172 497 -4 5 -8 7 -8 4z"/>
<path d="M2370 1245 l0 -255 25 0 c24 0 24 0 27 115 l3 116 65 -113 c64 -109
67 -113 103 -116 l37 -3 -75 120 c-69 113 -72 121 -50 121 13 0 36 10 51 23
47 41 46 176 -1 223 -21 21 -33 24 -105 24 l-80 0 0 -255z m155 175 c9 -7 15
-29 15 -55 0 -52 -15 -66 -75 -73 l-45 -5 0 78 0 78 45 -5 c25 -3 52 -11 60
-18z"/>
<path d="M2910 1245 l0 -255 30 0 30 0 0 255 0 255 -30 0 -30 0 0 -255z"/>
<path d="M3820 1245 l0 -255 25 0 25 0 0 125 0 125 100 0 100 0 0 -125 0 -125
25 0 25 0 0 255 0 255 -25 0 -25 0 0 -100 0 -100 -100 0 -100 0 0 100 0 100
-25 0 -25 0 0 -255z"/>
<path d="M5430 1245 l0 -255 25 0 25 0 0 125 0 125 100 0 100 0 0 -125 0 -125
25 0 25 0 0 255 0 255 -25 0 -25 0 0 -100 0 -100 -100 0 -100 0 0 100 0 100
-25 0 -25 0 0 -255z"/>
<path d="M6020 1494 c0 -4 29 -67 65 -142 l65 -135 0 -113 0 -114 25 0 25 0 0
120 c0 104 3 127 21 163 12 23 41 84 65 135 l43 92 -35 0 c-19 0 -34 -4 -34
-9 0 -4 -20 -51 -44 -102 l-44 -94 -47 103 c-44 94 -50 102 -77 102 -15 0 -28
-3 -28 -6z"/>
<path d="M6700 1499 c0 -3 -38 -116 -85 -253 -47 -136 -85 -249 -85 -252 0 -2
13 -4 29 -4 27 0 31 5 53 73 l25 72 69 3 70 3 24 -76 c22 -70 25 -75 52 -75
15 0 28 3 28 8 1 14 -163 487 -172 497 -4 5 -8 7 -8 4z"/>
<path d="M155 863 c-56 -12 -90 -28 -121 -55 l-34 -30 0 -248 c0 -137 3 -256
6 -265 17 -42 154 -78 245 -64 93 15 116 27 162 87 24 31 60 79 80 105 46 60
67 130 67 222 0 128 -51 221 -135 244 -38 10 -228 14 -270 4z m200 -203 c0
-24 -2 -25 -77 -28 l-78 -3 0 -29 c0 -30 0 -30 59 -30 42 0 62 -5 72 -16 22
-26 -11 -42 -76 -37 l-54 5 -3 -68 c-3 -74 -21 -99 -56 -78 -15 10 -17 30 -19
155 -2 105 1 145 10 151 6 4 59 7 117 5 105 -2 105 -2 105 -27z"/>
<path d="M146 647 c-9 -35 -7 -107 4 -128 6 -10 7 -19 2 -19 -5 0 -10 -25 -11
-55 -1 -48 1 -55 18 -55 17 0 19 8 20 66 0 37 2 69 5 71 2 3 36 5 75 4 57 0
69 2 65 14 -3 8 -13 14 -22 13 -10 -1 -41 0 -70 0 l-53 2 3 43 3 42 83 0 c58
-1 82 3 82 11 0 9 -28 13 -99 13 -94 1 -99 0 -105 -22z"/>
<path d="M1060 864 c-135 -26 -160 -80 -160 -344 0 -303 31 -345 255 -345 95
0 116 3 157 23 74 37 83 70 83 322 0 174 -3 212 -18 252 -26 66 -77 90 -201
94 -50 1 -102 0 -116 -2z m140 -189 c16 -19 -3 -45 -31 -45 -17 0 -19 -9 -19
-99 0 -96 1 -100 23 -103 16 -2 22 -10 22 -28 0 -24 -2 -25 -82 -28 -75 -3
-83 -1 -93 19 -13 24 -1 39 33 39 13 0 17 9 18 40 3 114 0 162 -9 156 -17 -10
-50 23 -45 44 5 18 14 20 88 20 61 0 86 -4 95 -15z"/>
<path d="M1035 659 c4 -6 13 -8 19 -6 7 3 19 1 27 -4 11 -6 14 -33 12 -120 -1
-61 -4 -113 -6 -115 -2 -2 -16 -5 -30 -6 -15 -1 -27 -6 -27 -10 0 -4 36 -8 80
-8 64 0 80 3 80 15 0 18 -14 19 -41 5 -18 -10 -19 -6 -19 110 0 127 0 127 48
121 6 -1 12 5 12 14 0 12 -15 15 -81 15 -54 0 -78 -3 -74 -11z"/>
<path d="M6357 859 c-88 -21 -139 -69 -156 -149 -14 -66 -14 -314 0 -380 13
-63 54 -111 112 -136 54 -22 262 -32 327 -14 60 16 103 63 123 137 23 80 24
337 2 411 -19 63 -67 116 -120 131 -47 13 -233 13 -288 0z m208 -183 c11 -8
16 -19 12 -30 -5 -13 -21 -16 -82 -16 l-75 0 0 -30 0 -30 60 0 c46 0 62 -4 67
-16 9 -25 -14 -38 -70 -39 l-52 0 -3 -42 -3 -42 78 -3 c67 -3 78 -6 81 -22 2
-10 -1 -22 -8 -26 -18 -11 -202 -11 -216 1 -9 7 -13 48 -12 150 0 119 2 140
16 149 26 15 185 12 207 -4z"/>
<path d="M6361 589 c1 -43 6 -79 10 -79 5 0 9 -5 9 -11 0 -5 -4 -7 -10 -4 -6
4 -10 -15 -10 -49 0 -57 12 -70 38 -44 9 9 12 9 12 0 0 -8 24 -12 80 -12 58 0
80 3 80 13 0 9 -22 13 -82 12 l-83 0 -3 58 c-2 41 1 57 10 58 7 0 39 0 71 -1
44 -1 57 2 57 13 0 12 -15 15 -66 14 -74 0 -82 6 -76 58 l4 35 84 -4 c67 -3
84 0 84 11 0 11 -22 13 -105 12 l-106 -1 2 -79z"/>
<path d="M2758 845 c-99 -21 -125 -50 -148 -160 -16 -79 -17 -296 -1 -362 17
-71 50 -97 147 -119 60 -13 106 -15 213 -11 75 3 153 10 173 16 52 16 96 56
108 99 18 62 23 222 11 320 -19 153 -49 193 -162 218 -79 16 -264 16 -341 -1z
m71 -164 c10 -6 26 -28 36 -50 10 -23 22 -41 27 -41 4 0 15 18 24 40 16 40 42
56 81 48 20 -4 29 -69 32 -219 1 -74 0 -77 -23 -81 -38 -7 -46 9 -46 93 0 43
-4 80 -8 83 -5 3 -16 -11 -26 -31 -9 -19 -19 -33 -22 -30 -7 6 27 78 49 101
16 19 17 17 18 -55 1 -41 1 -91 0 -111 -3 -35 0 -38 23 -38 25 0 26 1 22 68
-2 37 -4 100 -5 140 l-1 72 -29 0 c-26 0 -33 -7 -55 -51 -15 -28 -26 -56 -26
-63 0 -7 -7 -13 -15 -13 -8 0 -12 4 -9 9 9 14 -44 118 -60 118 -8 0 -22 -3
-31 -6 -13 -5 -14 -8 -3 -15 10 -7 10 -9 -2 -9 -13 0 -13 -1 0 -10 13 -9 13
-11 0 -20 -13 -9 -8 -14 12 -12 3 1 9 -5 12 -14 4 -9 2 -12 -5 -8 -6 4 -15 0
-20 -7 -13 -20 -11 -89 2 -89 8 0 8 -4 2 -12 -17 -22 -24 -78 -10 -78 28 1 34
17 33 88 -1 39 3 72 7 72 5 0 6 17 3 38 -6 34 -5 36 9 18 8 -11 15 -24 15 -29
0 -4 5 -5 12 -1 6 4 8 3 5 -3 -3 -5 1 -22 9 -37 23 -46 15 -54 -11 -11 -14 22
-25 36 -25 30 -1 -5 -2 -44 -4 -86 -1 -42 -6 -81 -10 -87 -9 -15 -53 -16 -62
-1 -14 23 2 291 19 301 16 10 35 10 56 -1z"/>
<path d="M3648 845 c-99 -21 -125 -50 -148 -160 -16 -79 -17 -296 -1 -362 17
-71 50 -97 147 -119 60 -13 106 -15 213 -11 75 3 153 10 173 16 52 16 96 56
108 99 18 62 23 222 11 320 -19 153 -49 193 -162 218 -79 16 -264 16 -341 -1z
m102 -207 c14 -27 28 -48 32 -48 4 0 17 19 29 43 12 23 26 45 32 49 12 7 47 2
58 -9 4 -5 10 -69 14 -144 6 -119 5 -137 -10 -149 -12 -10 -21 -11 -33 -3 -13
8 -18 28 -20 84 -3 102 -9 113 -34 66 -10 -22 -22 -37 -24 -34 -3 3 6 27 20
53 14 27 26 55 26 62 0 7 5 10 10 7 6 -4 10 -53 10 -116 l0 -109 26 0 25 0 -6
108 c-4 59 -12 113 -17 120 -7 8 -7 12 1 12 6 0 11 9 11 20 0 14 -7 20 -22 20
-32 0 -41 -9 -67 -62 -13 -27 -26 -48 -30 -48 -4 0 -20 25 -35 55 -16 34 -31
52 -39 49 -28 -10 -44 -59 -45 -129 0 -38 -3 -87 -6 -107 -5 -34 -3 -38 18
-38 21 0 22 4 23 83 1 109 16 171 30 119 3 -12 11 -22 18 -22 7 0 13 -10 12
-22 0 -13 3 -32 7 -43 4 -11 -4 -2 -18 20 -20 31 -26 35 -27 20 -1 -11 -2 -48
-4 -82 -3 -81 -25 -109 -64 -84 -10 7 -14 26 -13 68 4 131 15 228 26 236 29
19 61 2 86 -45z"/>
<path d="M5492 849 c-24 -4 -67 -19 -96 -32 -84 -39 -91 -61 -91 -297 0 -171
2 -200 19 -233 34 -68 135 -101 316 -101 144 0 213 20 244 73 26 45 32 164 17
313 -17 156 -29 207 -57 233 -49 46 -230 68 -352 44z m26 -171 c7 -7 12 -30
12 -52 l0 -41 51 53 c49 50 80 64 95 41 4 -6 -1 -9 -13 -7 -26 4 -53 -19 -46
-40 3 -12 2 -13 -4 -5 -7 10 -19 2 -48 -27 -22 -22 -43 -40 -47 -40 -4 0 -8
25 -8 55 0 34 -4 55 -11 55 -7 0 -9 -11 -6 -26 3 -16 0 -28 -9 -31 -16 -6 -20
-98 -4 -108 7 -4 6 -13 -1 -26 -8 -15 -7 -24 3 -37 9 -11 10 -14 1 -8 -9 5
-13 -1 -13 -18 0 -20 5 -26 23 -26 21 0 22 3 19 70 -2 38 0 70 4 70 4 0 20
-12 36 -27 24 -23 28 -24 34 -9 4 9 0 24 -10 34 -14 17 -12 22 42 75 32 31 62
57 67 57 5 0 -17 -27 -50 -60 l-58 -59 66 -65 c37 -36 67 -69 67 -74 0 -13
-23 -32 -39 -32 -9 0 -44 30 -78 67 l-62 68 -1 -58 c0 -53 -2 -58 -26 -67 -48
-19 -54 -3 -53 149 1 75 6 142 11 149 13 15 40 16 56 0z"/>
<path d="M1920 838 c-73 -11 -121 -36 -142 -74 -50 -87 -49 -394 2 -494 15
-29 34 -45 77 -67 56 -27 64 -28 203 -28 176 0 211 12 248 88 56 110 36 239
-47 317 -41 38 -49 53 -55 95 -11 73 -34 113 -75 135 -33 16 -57 22 -136 34
-11 2 -45 -1 -75 -6z m55 -180 c3 -18 4 -68 1 -111 -6 -120 -8 -117 90 -117
76 0 84 -2 84 -19 0 -10 -6 -23 -12 -29 -15 -12 -207 -15 -225 -4 -13 8 -21
282 -8 301 3 6 19 11 35 11 25 0 30 -5 35 -32z"/>
<path d="M4577 835 c-59 -19 -93 -64 -136 -175 -67 -177 -62 -386 11 -434 100
-65 468 -56 538 14 51 51 53 256 5 390 -67 187 -98 211 -265 217 -74 2 -119
-2 -153 -12z m126 -157 c8 -7 29 -51 46 -98 16 -47 39 -108 50 -136 21 -54 16
-74 -20 -74 -22 0 -37 20 -45 59 -7 34 -30 45 -79 39 -23 -2 -31 -12 -47 -55
-15 -42 -23 -51 -41 -51 -46 3 -48 15 -15 101 17 45 41 111 53 146 29 80 57
100 98 69z"/>
<path d="M4659 653 c-1 -10 -1 -25 0 -33 1 -12 -2 -11 -12 3 -13 16 -14 15
-14 -9 0 -14 -5 -29 -9 -33 -14 -10 -36 -64 -23 -55 7 4 9 -1 7 -12 -2 -11
-10 -18 -17 -16 -7 1 -10 -2 -6 -8 3 -5 2 -10 -2 -10 -11 0 -43 -86 -36 -94 4
-3 14 -6 23 -6 11 0 20 15 29 50 l13 50 58 0 58 0 17 -50 c15 -46 35 -67 35
-37 0 8 4 7 11 -3 20 -28 -1 41 -49 163 -35 88 -51 117 -64 117 -10 0 -19 -8
-19 -17z"/>
</g>
</svg>
